<?xml version="1.0" encoding="utf-8"?>
<!-- Generator: Adobe Illustrator 21.0.2, SVG Export Plug-In . SVG Version: 6.00 Build 0)  -->
<svg version="1.1" id="Layer_1" xmlns:figma="http://www.figma.com/figma/ns"
	 xmlns="http://www.w3.org/2000/svg" xmlns:xlink="http://www.w3.org/1999/xlink" x="0px" y="0px" viewBox="0 0 64 64"
	 style="enable-background:new 0 0 64 64;" xml:space="preserve">
<style type="text/css">
	.st0{fill:#38358C;}
	.st1{fill:#FFFFFF;}
</style>
<path id="path0_fill" class="st0" d="M0,15C0,6.7,6.7,0,15,0h34c8.3,0,15,6.7,15,15v34c0,8.3-6.7,15-15,15H15C6.7,64,0,57.3,0,49V15
	z"/>
<path id="path1_fill" class="st1" d="M49.9,39.5c-1.5,3.2-3.8,5.7-6.9,7.6c-3.1,1.9-6.5,2.8-10.1,2.8c-2.5,0-5-0.5-7.3-1.4
	s-4.3-2.2-6-3.8c-1.7-1.6-3-3.5-4-5.7c-1-2.2-1.5-4.5-1.5-7c0-2.4,0.5-4.7,1.4-6.9c0.9-2.2,2.2-4.1,3.8-5.7c1.6-1.6,3.5-2.9,5.8-3.9
	c2.2-1,4.6-1.5,7.1-1.6c0.7,0,1.2,0.3,1.5,0.9c0.3,0.6,0.2,1.2-0.4,1.7c-1.4,1.2-2.5,2.6-3.2,4.3c-0.7,1.6-1.1,3.3-1.1,5.1
	c0,2.3,0.6,4.4,1.8,6.4c1.2,2,2.8,3.5,4.8,4.6c2,1.1,4.3,1.7,6.7,1.7c1.9,0,3.8-0.4,5.6-1.2c0.7-0.3,1.3-0.2,1.8,0.3
	c0.2,0.2,0.4,0.5,0.4,0.8C50,39,50,39.3,49.9,39.5z"/>
</svg>
