<?xml version="1.0" encoding="utf-8"?>
<!-- Generator: Adobe Illustrator 21.1.0, SVG Export Plug-In . SVG Version: 6.00 Build 0)  -->
<svg version="1.1" id="Outline_Icons" xmlns="http://www.w3.org/2000/svg" xmlns:xlink="http://www.w3.org/1999/xlink" x="0px"
	 y="0px" viewBox="0 0 23 23" style="enable-background:new 0 0 23 23;" xml:space="preserve">
<style type="text/css">
	.st0{fill:#FECE56;}
</style>
<g>
	<g id="XMLID_2_">
		<g>
			<path class="st0" d="M11.5,0C17.9,0,23,5.2,23,11.5S17.9,23,11.5,23S0,17.9,0,11.5S5.2,0,11.5,0z M17.5,9.1
				c0.6-0.6,0.6-1.5,0.1-2.1c-0.6-0.6-1.5-0.6-2.1-0.1l-6.4,6l-1.5-1.5c-0.6-0.6-1.5-0.6-2.1,0c-0.6,0.6-0.6,1.5,0,2.1l2.5,2.5
				c0.3,0.3,0.7,0.4,1.1,0.4c0.4,0,0.7-0.1,1-0.4L17.5,9.1z"/>
		</g>
		<g>
		</g>
	</g>
</g>
</svg>
