<?xml version="1.0" encoding="utf-8"?>
<!-- Generator: Adobe Illustrator 21.0.2, SVG Export Plug-In . SVG Version: 6.00 Build 0)  -->
<svg version="1.1" id="Layer_1" xmlns:figma="http://www.figma.com/figma/ns"
	 xmlns="http://www.w3.org/2000/svg" xmlns:xlink="http://www.w3.org/1999/xlink" x="0px" y="0px" viewBox="0 0 64 64"
	 style="enable-background:new 0 0 64 64;" xml:space="preserve">
<style type="text/css">
	.st0{fill:#FFA335;}
	.st1{fill:#FFFFFF;}
</style>
<path id="path0_fill" class="st0" d="M0,15C0,6.7,6.7,0,15,0h34c8.3,0,15,6.7,15,15v34c0,8.3-6.7,15-15,15H15C6.7,64,0,57.3,0,49V15
	z"/>
<path id="path1_fill" class="st1" d="M49.9,17c2.6,0,3.9,3,2.3,4.9L39.6,36.9c-0.9,1.1-1.4,2.5-1.4,3.9v6.6c0,2.3-2.5,3.8-4.5,2.6
	l-3.9-2.2c-1.2-0.7-2-2-2-3.5v-3.5c0-1.4-0.5-2.8-1.4-3.9L13.8,21.9C12.1,20,13.5,17,16.1,17L49.9,17z"/>
</svg>
