<?xml version="1.0" encoding="utf-8"?>
<!-- Generator: Adobe Illustrator 19.0.0, SVG Export Plug-In . SVG Version: 6.00 Build 0)  -->
<svg version="1.1" id="Layer_1" xmlns:figma="http://www.figma.com/figma/ns"
	 xmlns="http://www.w3.org/2000/svg" xmlns:xlink="http://www.w3.org/1999/xlink" x="0px" y="0px" viewBox="0 0 64 64"
	 style="enable-background:new 0 0 64 64;" xml:space="preserve">
<style type="text/css">
	.st0{fill:#5BA3D1;}
	.st1{fill:#FFFFFF;}
</style>
<title>history-icon</title>
<desc>Created using Figma</desc>
<path id="path0_fill" class="st0" d="M0,15C0,6.7,6.7,0,15,0h34c8.3,0,15,6.7,15,15v34c0,8.3-6.7,15-15,15H15C6.7,64,0,57.3,0,49V15
	z"/>
<path id="path1_fill" class="st1" d="M35.2,15.5c0.4-1,0.3-2.1-0.3-3.1c-1-1.5-3-1.8-4.5-0.8l-6.1,4.2c-0.9,0.6-1.4,1.6-1.4,2.7
	c0,1.1,0.5,2.1,1.4,2.7l6.1,4.2c1.5,1,3.5,0.6,4.5-0.8c0.5-0.7,0.6-1.5,0.5-2.3c4.8,1.5,8.3,6.1,8.3,11.6C43.8,40.6,38.4,46,32,46
	s-11.8-5.4-11.8-12.2c0-1.8-1.5-3.2-3.3-3.2s-3.3,1.5-3.3,3.2c0,10.2,8.1,18.7,18.3,18.7c10.2,0,18.3-8.4,18.3-18.7
	C50.3,24.7,43.8,17.1,35.2,15.5z"/>
</svg>
