<?xml version="1.0" encoding="utf-8"?>
<!-- Generator: Adobe Illustrator 21.0.2, SVG Export Plug-In . SVG Version: 6.00 Build 0)  -->
<svg version="1.1" id="Layer_1" xmlns:figma="http://www.figma.com/figma/ns"
	 xmlns="http://www.w3.org/2000/svg" xmlns:xlink="http://www.w3.org/1999/xlink" x="0px" y="0px" viewBox="0 0 64 64"
	 style="enable-background:new 0 0 64 64;" xml:space="preserve">
<style type="text/css">
	.st0{fill:#55667A;}
	.st1{fill:#FFFFFF;}
</style>
<title>offtime-icon</title>
<desc>Created using Figma</desc>
<path id="path0_fill" class="st0" d="M0,15C0,6.7,6.7,0,15,0h34c8.3,0,15,6.7,15,15v34c0,8.3-6.7,15-15,15H15C6.7,64,0,57.3,0,49V15
	z"/>
<path class="st1" d="M32,12c-11,0-20,9-20,20c0,11,9,20,20,20c11,0,20-9,20-20C52,21,43,12,32,12z M42.1,38.6
	c-0.9,1.7-3,2.4-4.7,1.6l-7-3.5c-1.2-0.6-1.9-1.8-1.9-3.1V21c0-1.9,1.6-3.5,3.5-3.5s3.5,1.6,3.5,3.5v10.3l5.1,2.5
	C42.3,34.7,43,36.8,42.1,38.6z"/>
</svg>
