<?xml version="1.0" encoding="utf-8"?>
<!-- Generator: Adobe Illustrator 21.0.2, SVG Export Plug-In . SVG Version: 6.00 Build 0)  -->
<svg version="1.1" id="Layer_1" xmlns:figma="http://www.figma.com/figma/ns"
	 xmlns="http://www.w3.org/2000/svg" xmlns:xlink="http://www.w3.org/1999/xlink" x="0px" y="0px" viewBox="0 0 64 64"
	 style="enable-background:new 0 0 64 64;" xml:space="preserve">
<style type="text/css">
	.st0{fill:#00B7D9;}
	.st1{fill:#FFFFFF;}
</style>
<title>pause-icon</title>
<desc>Created using Figma</desc>
<path id="path0_fill" class="st0" d="M0,15C0,6.7,6.7,0,15,0h34c8.3,0,15,6.7,15,15v34c0,8.3-6.7,15-15,15H15C6.7,64,0,57.3,0,49V15
	z"/>
<path class="st1" d="M32,12c-11,0-20,9-20,20s9,20,20,20s20-9,20-20S43,12,32,12z M29.9,39c0,1.7-1.4,3-3,3s-3-1.4-3-3V25
	c0-1.7,1.4-3,3-3s3,1.4,3,3V39z M40.3,39c0,1.7-1.4,3-3,3c-1.7,0-3-1.4-3-3V25c0-1.7,1.4-3,3-3c1.7,0,3,1.4,3,3V39z"/>
</svg>
