<?xml version="1.0" encoding="utf-8"?>
<!-- Generator: Adobe Illustrator 21.0.2, SVG Export Plug-In . SVG Version: 6.00 Build 0)  -->
<svg version="1.1" id="Layer_1" xmlns:figma="http://www.figma.com/figma/ns"
	 xmlns="http://www.w3.org/2000/svg" xmlns:xlink="http://www.w3.org/1999/xlink" x="0px" y="0px" viewBox="0 0 64 64"
	 style="enable-background:new 0 0 64 64;" xml:space="preserve">
<style type="text/css">
	.st0{fill:#00B7D9;}
	.st1{fill:#FFFFFF;}
</style>
<path id="path0_fill" class="st0" d="M0,15C0,6.7,6.7,0,15,0h34c8.3,0,15,6.7,15,15v34c0,8.3-6.7,15-15,15H15C6.7,64,0,57.3,0,49V15
	z"/>
<path id="path1_fill" class="st1" d="M28.5,53c0.6,0,1-0.4,1-1v-8c0-0.6-0.4-1-1-1H16.6c-0.6,0-1,0.5-1,1l0.1,3.2c0,0,0,0,0,0
	c0.1,3.2,2.8,5.8,6,5.8H28.5z"/>
<path id="path2_fill" class="st1" d="M34.5,52c0,0.6,0.4,1,1,1h6.7c3.2,0,5.9-2.5,6-5.8l0,0l0.1-3.2c0-0.6-0.4-1-1-1H35.5
	c-0.6,0-1,0.4-1,1V52z"/>
<path id="path3_fill" class="st1" d="M47.6,38c0.5,0,1-0.4,1-1l0.1-2.8c0,0,0,0,0,0c0.1-3.4-2.6-6.2-6-6.2h-7.3c-0.6,0-1,0.4-1,1v8
	c0,0.6,0.4,1,1,1H47.6z"/>
<path id="path4_fill" class="st1" d="M29.5,29c0-0.6-0.4-1-1-1h-7.3c-3.4,0-6.1,2.8-6,6.2c0,0,0,0,0,0l0.1,2.8c0,0.5,0.5,1,1,1h12.1
	c0.6,0,1-0.4,1-1V29z"/>
<path class="st1" d="M45.2,13.1c-1.7-2.3-4.9-3.5-8.2-2c-1.9,0.8-3.6,2.5-5,4.9c-1.5-2.5-3.3-4.1-5.2-4.9c-3.2-1.4-6.5-0.3-8.2,2.1
	C17,15.6,17,19,19.5,21.6c2.3,2.5,6.5,3.9,12.6,3.9c6.1,0,10.3-1.4,12.5-3.9C47.1,18.9,46.9,15.5,45.2,13.1z M23.1,18.2
	c-0.8-0.9-0.7-1.6-0.4-2.1c0.3-0.4,1-0.8,2.1-0.4c1,0.4,2.4,1.6,3.8,4.6C25.5,19.9,23.9,18.9,23.1,18.2z M41,18.2
	c-0.7,0.7-2.3,1.7-5.5,2.1c1.3-3,2.7-4.2,3.5-4.6c1-0.4,1.7-0.1,2.1,0.4C41.6,16.7,41.7,17.4,41,18.2z"/>
</svg>
