<?xml version="1.0" encoding="utf-8"?>
<!-- Generator: Adobe Illustrator 21.0.2, SVG Export Plug-In . SVG Version: 6.00 Build 0)  -->
<svg version="1.1" id="Layer_1" xmlns:figma="http://www.figma.com/figma/ns"
	 xmlns="http://www.w3.org/2000/svg" xmlns:xlink="http://www.w3.org/1999/xlink" x="0px" y="0px" viewBox="0 0 64 64"
	 style="enable-background:new 0 0 64 64;" xml:space="preserve">
<style type="text/css">
	.st0{fill:#61C461;}
	.st1{fill:#FFFFFF;}
</style>
<path id="path0_fill" class="st0" d="M0,15C0,6.7,6.7,0,15,0h34c8.3,0,15,6.7,15,15v34c0,8.3-6.7,15-15,15H15C6.7,64,0,57.3,0,49V15
	z"/>
<path id="path1_fill" class="st1" d="M29.6,15.8c1-2,3.8-2,4.8,0l3.5,7.1c0.4,0.8,1.1,1.3,2,1.5l7.8,1.1c2.2,0.3,3,3,1.5,4.5
	l-5.7,5.5c-0.6,0.6-0.9,1.5-0.8,2.3l1.3,7.8c0.4,2.2-1.9,3.8-3.8,2.8l-7-3.7c-0.8-0.4-1.7-0.4-2.5,0l-7,3.7c-1.9,1-4.2-0.6-3.8-2.8
	l1.3-7.8c0.1-0.9-0.1-1.7-0.8-2.3L14.9,30c-1.6-1.5-0.7-4.2,1.5-4.5l7.8-1.1c0.9-0.1,1.6-0.7,2-1.5L29.6,15.8z"/>
</svg>
