<?xml version="1.0" encoding="utf-8"?>
<!-- Generator: Adobe Illustrator 21.0.2, SVG Export Plug-In . SVG Version: 6.00 Build 0)  -->
<svg version="1.1" id="Layer_1" xmlns:figma="http://www.figma.com/figma/ns"
	 xmlns="http://www.w3.org/2000/svg" xmlns:xlink="http://www.w3.org/1999/xlink" x="0px" y="0px" viewBox="0 0 64 64"
	 style="enable-background:new 0 0 64 64;" xml:space="preserve">
<style type="text/css">
	.st0{fill:#CC294A;}
	.st1{fill:#FFFFFF;}
</style>
<path id="path0_fill" class="st0" d="M0,15C0,6.7,6.7,0,15,0h34c8.3,0,15,6.7,15,15v34c0,8.3-6.7,15-15,15H15C6.7,64,0,57.3,0,49V15
	z"/>
<path id="path1_fill" class="st1" d="M29.1,15.6c0-1.2-1.1-2.2-2.3-1.8c-6.1,1.7-11.1,6.3-13.1,12.3l0,0c-0.6,1.9-1,3.9-1,6
	c0,3.2,0.8,6.2,2.2,8.8c0.6,1.1,2,1.2,2.9,0.4l1.6-1.6c0.6-0.6,0.8-1.6,0.4-2.5c-0.7-1.6-1.1-3.3-1.1-5.2c0-5.7,3.6-10.5,8.7-12.3
	c0.9-0.3,1.6-1.1,1.6-2.1L29.1,15.6L29.1,15.6z"/>
<path id="path2_fill" class="st1" d="M22.2,43.1c-1.4,1.2-1.4,3.4,0.2,4.3c2.9,1.7,6.2,2.6,9.8,2.6C42.6,50,51,41.9,51,31.8
	c0-8.7-6.3-16-14.8-17.7c-1.7-0.4-3.1,1-3.1,2.7v15.4c0,0.9-0.4,1.7-1,2.3l0,0L22.2,43.1z"/>
</svg>
