<?xml version="1.0" encoding="utf-8"?>
<!-- Generator: Adobe Illustrator 21.0.2, SVG Export Plug-In . SVG Version: 6.00 Build 0)  -->
<svg version="1.1" id="Layer_1" xmlns:figma="http://www.figma.com/figma/ns"
	 xmlns="http://www.w3.org/2000/svg" xmlns:xlink="http://www.w3.org/1999/xlink" x="0px" y="0px" viewBox="0 0 64 64"
	 style="enable-background:new 0 0 64 64;" xml:space="preserve">
<style type="text/css">
	.st0{fill:#333333;}
	.st1{fill:#E85F29;}
	.st2{fill:#B88EDA;}
	.st3{fill:#61C461;}
	.st4{fill:#FFC229;}
</style>
<path id="path0_fill" class="st0" d="M0,15C0,6.7,6.7,0,15,0h34c8.3,0,15,6.7,15,15v34c0,8.3-6.7,15-15,15H15C6.7,64,0,57.3,0,49V15
	z"/>
<path id="path1_fill" class="st1" d="M17.5,29L17.5,29c1.9,0,3.5,1.6,3.5,3.5l0,0v14.7l0,0v1.6c0,0.6-0.4,1-1,1h-5c-0.6,0-1-0.4-1-1
	v-1.5l0,0V32.6l0,0C14,30.6,15.6,29,17.5,29z"/>
<path id="path2_fill" class="st2" d="M47.5,22L47.5,22c1.9,0,3.5,1.6,3.5,3.5l0,0v21.7l0,0v1.6c0,0.6-0.4,1-1,1h-5c-0.6,0-1-0.4-1-1
	v-1.5l0,0V25.6l0,0C44,23.6,45.6,22,47.5,22z"/>
<path id="path3_fill" class="st3" d="M27.5,33L27.5,33c1.9,0,3.5,1.6,3.5,3.5l0,0v10.7l0,0v1.6c0,0.6-0.4,1-1,1h-5c-0.6,0-1-0.4-1-1
	v-1.5l0,0V36.6l0,0C24,34.6,25.6,33,27.5,33z"/>
<path id="path4_fill" class="st4" d="M37.5,15L37.5,15c1.9,0,3.5,1.6,3.5,3.5l0,0v28.7l0,0v1.6c0,0.6-0.4,1-1,1h-5c-0.6,0-1-0.4-1-1
	v-1.5l0,0V18.6l0,0C34,16.6,35.6,15.1,37.5,15z"/>
</svg>
