<svg id="Layer_1" xmlns="http://www.w3.org/2000/svg" viewBox="0 0 64 64"><style>.st0{fill:#5BA3D1;} .st1{fill:#FFFFFF;}</style><title>history-icon</title><desc>Created using Figma</desc><path id="path0_fill" class="st0" d="M0 15C0 6.7 6.7 0 15 0h34c8.3 0 15 6.7 15 15v34c0 8.3-6.7 15-15 15H15C6.7 64 0 57.3 0 49V15z"/><path id="path1_fill" class="st1" d="M35.2 15.5c.4-1 .3-2.1-.3-3.1-1-1.5-3-1.8-4.5-.8l-6.1 4.2c-.9.6-1.4 1.6-1.4 2.7s.5 2.1 1.4 2.7l6.1 4.2c1.5 1 3.5.6 4.5-.8.5-.7.6-1.5.5-2.3 4.8 1.5 8.3 6.1 8.3 11.6C43.8 40.6 38.4 46 32 46s-11.8-5.4-11.8-12.2c0-1.8-1.5-3.2-3.3-3.2s-3.3 1.5-3.3 3.2c0 10.2 8.1 18.7 18.3 18.7 10.2 0 18.3-8.4 18.3-18.7.1-9.1-6.4-16.7-15-18.3z"/></svg>