<svg id="Layer_1" xmlns="http://www.w3.org/2000/svg" viewBox="0 0 64 64"><style>.st0{fill:#55667A;} .st1{fill:#FFFFFF;}</style><title>offtime-icon</title><desc>Created using Figma</desc><path id="path0_fill" class="st0" d="M0 15C0 6.7 6.7 0 15 0h34c8.3 0 15 6.7 15 15v34c0 8.3-6.7 15-15 15H15C6.7 64 0 57.3 0 49V15z"/><path class="st1" d="M32 12c-11 0-20 9-20 20s9 20 20 20 20-9 20-20-9-20-20-20zm10.1 26.6c-.9 1.7-3 2.4-4.7 1.6l-7-3.5c-1.2-.6-1.9-1.8-1.9-3.1V21c0-1.9 1.6-3.5 3.5-3.5s3.5 1.6 3.5 3.5v10.3l5.1 2.5c1.7.9 2.4 3 1.5 4.8z"/></svg>