<svg id="Layer_1" xmlns="http://www.w3.org/2000/svg" viewBox="0 0 64 64"><style>.st0{fill:#00B7D9;} .st1{fill:#FFFFFF;}</style><title>pause-icon</title><desc>Created using Figma</desc><path id="path0_fill" class="st0" d="M0 15C0 6.7 6.7 0 15 0h34c8.3 0 15 6.7 15 15v34c0 8.3-6.7 15-15 15H15C6.7 64 0 57.3 0 49V15z"/><path class="st1" d="M32 12c-11 0-20 9-20 20s9 20 20 20 20-9 20-20-9-20-20-20zm-2.1 27c0 1.7-1.4 3-3 3s-3-1.4-3-3V25c0-1.7 1.4-3 3-3s3 1.4 3 3v14zm10.4 0c0 1.7-1.4 3-3 3-1.7 0-3-1.4-3-3V25c0-1.7 1.4-3 3-3 1.7 0 3 1.4 3 3v14z"/></svg>