<svg id="Layer_1" xmlns="http://www.w3.org/2000/svg" viewBox="0 0 64 64"><style>.st0{fill:#00B7D9;} .st1{fill:#FFFFFF;}</style><path id="path0_fill" class="st0" d="M0 15C0 6.7 6.7 0 15 0h34c8.3 0 15 6.7 15 15v34c0 8.3-6.7 15-15 15H15C6.7 64 0 57.3 0 49V15z"/><path id="path1_fill" class="st1" d="M28.5 53c.6 0 1-.4 1-1v-8c0-.6-.4-1-1-1H16.6c-.6 0-1 .5-1 1l.1 3.2c.1 3.2 2.8 5.8 6 5.8h6.8z"/><path id="path2_fill" class="st1" d="M34.5 52c0 .6.4 1 1 1h6.7c3.2 0 5.9-2.5 6-5.8l.1-3.2c0-.6-.4-1-1-1H35.5c-.6 0-1 .4-1 1v8z"/><path id="path3_fill" class="st1" d="M47.6 38c.5 0 1-.4 1-1l.1-2.8c.1-3.4-2.6-6.2-6-6.2h-7.3c-.6 0-1 .4-1 1v8c0 .6.4 1 1 1h12.2z"/><path id="path4_fill" class="st1" d="M29.5 29c0-.6-.4-1-1-1h-7.3c-3.4 0-6.1 2.8-6 6.2l.1 2.8c0 .5.5 1 1 1h12.1c.6 0 1-.4 1-1v-8z"/><path class="st1" d="M45.2 13.1c-1.7-2.3-4.9-3.5-8.2-2-1.9.8-3.6 2.5-5 4.9-1.5-2.5-3.3-4.1-5.2-4.9-3.2-1.4-6.5-.3-8.2 2.1-1.6 2.4-1.6 5.8.9 8.4 2.3 2.5 6.5 3.9 12.6 3.9s10.3-1.4 12.5-3.9c2.5-2.7 2.3-6.1.6-8.5zm-22.1 5.1c-.8-.9-.7-1.6-.4-2.1.3-.4 1-.8 2.1-.4 1 .4 2.4 1.6 3.8 4.6-3.1-.4-4.7-1.4-5.5-2.1zm17.9 0c-.7.7-2.3 1.7-5.5 2.1 1.3-3 2.7-4.2 3.5-4.6 1-.4 1.7-.1 2.1.4.5.6.6 1.3-.1 2.1z"/></svg>