<svg id="Layer_1" xmlns="http://www.w3.org/2000/svg" viewBox="0 0 64 64"><style>.st0{fill:#61C461;} .st1{fill:#FFFFFF;}</style><path id="path0_fill" class="st0" d="M0 15C0 6.7 6.7 0 15 0h34c8.3 0 15 6.7 15 15v34c0 8.3-6.7 15-15 15H15C6.7 64 0 57.3 0 49V15z"/><path id="path1_fill" class="st1" d="M29.6 15.8c1-2 3.8-2 4.8 0l3.5 7.1c.4.8 1.1 1.3 2 1.5l7.8 1.1c2.2.3 3 3 1.5 4.5l-5.7 5.5c-.6.6-.9 1.5-.8 2.3l1.3 7.8c.4 2.2-1.9 3.8-3.8 2.8l-7-3.7c-.8-.4-1.7-.4-2.5 0l-7 3.7c-1.9 1-4.2-.6-3.8-2.8l1.3-7.8c.1-.9-.1-1.7-.8-2.3L14.9 30c-1.6-1.5-.7-4.2 1.5-4.5l7.8-1.1c.9-.1 1.6-.7 2-1.5l3.4-7.1z"/></svg>