<svg id="Layer_1" xmlns="http://www.w3.org/2000/svg" viewBox="0 0 64 64"><style>.st0{fill:#CC294A;} .st1{fill:#FFFFFF;}</style><path id="path0_fill" class="st0" d="M0 15C0 6.7 6.7 0 15 0h34c8.3 0 15 6.7 15 15v34c0 8.3-6.7 15-15 15H15C6.7 64 0 57.3 0 49V15z"/><path id="path1_fill" class="st1" d="M29.1 15.6c0-1.2-1.1-2.2-2.3-1.8-6.1 1.7-11.1 6.3-13.1 12.3-.6 1.9-1 3.9-1 6 0 3.2.8 6.2 2.2 8.8.6 1.1 2 1.2 2.9.4l1.6-1.6c.6-.6.8-1.6.4-2.5-.7-1.6-1.1-3.3-1.1-5.2 0-5.7 3.6-10.5 8.7-12.3.9-.3 1.6-1.1 1.6-2.1l.1-2z"/><path id="path2_fill" class="st1" d="M22.2 43.1c-1.4 1.2-1.4 3.4.2 4.3 2.9 1.7 6.2 2.6 9.8 2.6C42.6 50 51 41.9 51 31.8c0-8.7-6.3-16-14.8-17.7-1.7-.4-3.1 1-3.1 2.7v15.4c0 .9-.4 1.7-1 2.3l-9.9 8.6z"/></svg>