<svg id="Layer_1" xmlns="http://www.w3.org/2000/svg" viewBox="0 0 64 64"><style>.st0{fill:#333333;} .st1{fill:#E85F29;} .st2{fill:#B88EDA;} .st3{fill:#61C461;} .st4{fill:#FFC229;}</style><path id="path0_fill" class="st0" d="M0 15C0 6.7 6.7 0 15 0h34c8.3 0 15 6.7 15 15v34c0 8.3-6.7 15-15 15H15C6.7 64 0 57.3 0 49V15z"/><path id="path1_fill" class="st1" d="M17.5 29c1.9 0 3.5 1.6 3.5 3.5v16.3c0 .6-.4 1-1 1h-5c-.6 0-1-.4-1-1V32.6c0-2 1.6-3.6 3.5-3.6z"/><path id="path2_fill" class="st2" d="M47.5 22c1.9 0 3.5 1.6 3.5 3.5v23.3c0 .6-.4 1-1 1h-5c-.6 0-1-.4-1-1V25.6c0-2 1.6-3.6 3.5-3.6z"/><path id="path3_fill" class="st3" d="M27.5 33c1.9 0 3.5 1.6 3.5 3.5V48.8c0 .6-.4 1-1 1h-5c-.6 0-1-.4-1-1V36.6c0-2 1.6-3.6 3.5-3.6z"/><path id="path4_fill" class="st4" d="M37.5 15c1.9 0 3.5 1.6 3.5 3.5v30.3c0 .6-.4 1-1 1h-5c-.6 0-1-.4-1-1V18.6c0-2 1.6-3.5 3.5-3.6z"/></svg>